TITLE ""
FILE "1Q_t_0410-0419.mp3" MP3
  TRACK 01 AUDIO
    TITLE "1Q_t_0410-0419_01"
    INDEX 01 00:00:00
  TRACK 02 AUDIO
    TITLE "1Q_t_0410-0419_02"
    INDEX 01 00:01:47
  TRACK 03 AUDIO
    TITLE "1Q_t_0410-0419_03"
    INDEX 01 00:01:65
  TRACK 04 AUDIO
    TITLE "1Q_t_0410-0419_04"
    INDEX 01 00:04:53
  TRACK 05 AUDIO
    TITLE "1Q_t_0410-0419_05"
    INDEX 01 00:04:69
  TRACK 06 AUDIO
    TITLE "1Q_t_0410-0419_06"
    INDEX 01 00:11:41
  TRACK 07 AUDIO
    TITLE "1Q_t_0410-0419_07"
    INDEX 01 00:12:17
  TRACK 08 AUDIO
    TITLE "1Q_t_0410-0419_08"
    INDEX 01 00:13:56
  TRACK 09 AUDIO
    TITLE "1Q_t_0410-0419_09"
    INDEX 01 00:13:72
  TRACK 10 AUDIO
    TITLE "1Q_t_0410-0419_10"
    INDEX 01 00:19:02
  TRACK 11 AUDIO
    TITLE "1Q_t_0410-0419_11"
    INDEX 01 00:19:15
  TRACK 12 AUDIO
    TITLE "1Q_t_0410-0419_12"
    INDEX 01 00:25:73
  TRACK 13 AUDIO
    TITLE "1Q_t_0410-0419_13"
    INDEX 01 00:26:51
  TRACK 14 AUDIO
    TITLE "1Q_t_0410-0419_14"
    INDEX 01 00:27:66
  TRACK 15 AUDIO
    TITLE "1Q_t_0410-0419_15"
    INDEX 01 00:28:05
  TRACK 16 AUDIO
    TITLE "1Q_t_0410-0419_16"
    INDEX 01 00:32:02
  TRACK 17 AUDIO
    TITLE "1Q_t_0410-0419_17"
    INDEX 01 00:32:18
  TRACK 18 AUDIO
    TITLE "1Q_t_0410-0419_18"
    INDEX 01 00:36:61
  TRACK 19 AUDIO
    TITLE "1Q_t_0410-0419_19"
    INDEX 01 00:37:43
  TRACK 20 AUDIO
    TITLE "1Q_t_0410-0419_20"
    INDEX 01 00:38:60
  TRACK 21 AUDIO
    TITLE "1Q_t_0410-0419_21"
    INDEX 01 00:38:74
  TRACK 22 AUDIO
    TITLE "1Q_t_0410-0419_22"
    INDEX 01 00:43:34
  TRACK 23 AUDIO
    TITLE "1Q_t_0410-0419_23"
    INDEX 01 00:43:47
  TRACK 24 AUDIO
    TITLE "1Q_t_0410-0419_24"
    INDEX 01 00:50:24
  TRACK 25 AUDIO
    TITLE "1Q_t_0410-0419_25"
    INDEX 01 00:51:02
  TRACK 26 AUDIO
    TITLE "1Q_t_0410-0419_26"
    INDEX 01 00:51:74
  TRACK 27 AUDIO
    TITLE "1Q_t_0410-0419_27"
    INDEX 01 00:52:17
  TRACK 28 AUDIO
    TITLE "1Q_t_0410-0419_28"
    INDEX 01 00:55:11
  TRACK 29 AUDIO
    TITLE "1Q_t_0410-0419_29"
    INDEX 01 00:55:27
  TRACK 30 AUDIO
    TITLE "1Q_t_0410-0419_30"
    INDEX 01 00:59:64
  TRACK 31 AUDIO
    TITLE "1Q_t_0410-0419_31"
    INDEX 01 01:00:42
  TRACK 32 AUDIO
    TITLE "1Q_t_0410-0419_32"
    INDEX 01 01:01:55
  TRACK 33 AUDIO
    TITLE "1Q_t_0410-0419_33"
    INDEX 01 01:01:71
  TRACK 34 AUDIO
    TITLE "1Q_t_0410-0419_34"
    INDEX 01 01:03:72
  TRACK 35 AUDIO
    TITLE "1Q_t_0410-0419_35"
    INDEX 01 01:04:12
  TRACK 36 AUDIO
    TITLE "1Q_t_0410-0419_36"
    INDEX 01 01:09:74
  TRACK 37 AUDIO
    TITLE "1Q_t_0410-0419_37"
    INDEX 01 01:10:50
  TRACK 38 AUDIO
    TITLE "1Q_t_0410-0419_38"
    INDEX 01 01:11:59
  TRACK 39 AUDIO
    TITLE "1Q_t_0410-0419_39"
    INDEX 01 01:12:00
  TRACK 40 AUDIO
    TITLE "1Q_t_0410-0419_40"
    INDEX 01 01:14:30
  TRACK 41 AUDIO
    TITLE "1Q_t_0410-0419_41"
    INDEX 01 01:14:46
  TRACK 42 AUDIO
    TITLE "1Q_t_0410-0419_42"
    INDEX 01 01:19:47
  TRACK 43 AUDIO
    TITLE "1Q_t_0410-0419_43"
    INDEX 01 01:20:33
  TRACK 44 AUDIO
    TITLE "1Q_t_0410-0419_44"
    INDEX 01 01:21:54
  TRACK 45 AUDIO
    TITLE "1Q_t_0410-0419_45"
    INDEX 01 01:21:71
  TRACK 46 AUDIO
    TITLE "1Q_t_0410-0419_46"
    INDEX 01 01:25:03
  TRACK 47 AUDIO
    TITLE "1Q_t_0410-0419_47"
    INDEX 01 01:25:16
  TRACK 48 AUDIO
    TITLE "1Q_t_0410-0419_48"
    INDEX 01 01:29:71
  TRACK 49 AUDIO
    TITLE "1Q_t_0410-0419_49"
    INDEX 01 01:30:49
  TRACK 50 AUDIO
    TITLE "1Q_t_0410-0419_50"
    INDEX 01 01:31:74
  TRACK 51 AUDIO
    TITLE "1Q_t_0410-0419_51"
    INDEX 01 01:32:18
  TRACK 52 AUDIO
    TITLE "1Q_t_0410-0419_52"
    INDEX 01 01:33:33
  TRACK 53 AUDIO
    TITLE "1Q_t_0410-0419_53"
    INDEX 01 01:33:47
  TRACK 54 AUDIO
    TITLE "1Q_t_0410-0419_54"
    INDEX 01 01:38:31
  TRACK 55 AUDIO
    TITLE "1Q_t_0410-0419_55"
    INDEX 01 01:39:09
  TRACK 56 AUDIO
    TITLE "1Q_t_0410-0419_56"
    INDEX 01 01:40:22
  TRACK 57 AUDIO
    TITLE "1Q_t_0410-0419_57"
    INDEX 01 01:40:39
  TRACK 58 AUDIO
    TITLE "1Q_t_0410-0419_58"
    INDEX 01 01:42:21
  TRACK 59 AUDIO
    TITLE "1Q_t_0410-0419_59"
    INDEX 01 01:42:36
  TRACK 60 AUDIO
    TITLE "1Q_t_0410-0419_60"
    INDEX 01 01:46:34
